<?xml version="1.0" encoding="utf-8"?>
<!-- Svg Vector Icons : http://www.onlinewebfonts.com/icon -->
<!DOCTYPE svg PUBLIC "-//W3C//DTD SVG 1.1//EN" "http://www.w3.org/Graphics/SVG/1.1/DTD/svg11.dtd">
<svg version="1.1" xmlns="http://www.w3.org/2000/svg" xmlns:xlink="http://www.w3.org/1999/xlink" x="0px" y="0px" viewBox="0 0 1000 1000" enable-background="new 0 0 1000 1000" xml:space="preserve">
<metadata> Svg Vector Icons : http://www.onlinewebfonts.com/icon </metadata>
<g style="fill:#FFFFFF;"><path d="M689.2,508.5l-121.9,0V374.8c0-12.3-10-22.3-22.3-22.3H456c-12.3,0-22.3,10-22.3,22.3v133.8l-122.9,0.6c-4.3,0-7.8,2.5-9.3,6c0,0.1-0.1,0.1-0.1,0.2c-0.3,0.7-0.4,1.4-0.5,2.1c-0.1,0.7-0.3,1.3-0.3,2c0,0.2-0.1,0.3-0.1,0.4c0,0.4,0.3,0.8,0.3,1.2c0.2,0.9,0.4,1.7,0.8,2.6c0.2,0.4,0.4,0.8,0.7,1.1c0.4,0.6,0.6,1.3,1.1,1.9l184,205.7c0.4,0.5,0.9,0.7,1.3,1.1c0.2,0.2,0.4,0.6,0.6,0.8c0.2,0.2,0.6,0.2,0.8,0.4c0.7,0.5,1.5,0.8,2.3,1.1c0.3,0.1,0.5,0.2,0.8,0.3c3.2,0.9,6.6,0.7,9.1-1.4c0.6-0.5,0.9-1.2,1.4-1.7c0.3-0.3,0.7-0.4,1-0.7l191.6-205.5c0.6-0.6,0.9-1.4,1.3-2.1c0.2-0.3,0.4-0.6,0.6-0.9c0.4-0.8,0.6-1.7,0.8-2.6c0.1-0.4,0.3-0.7,0.3-1.1v-0.7c0-0.1,0-0.2,0-0.4C699.8,513.2,695.3,508.5,689.2,508.5z"/><path d="M456,330.3h89.1c12.3,0,22.3-10,22.3-22.3v-22.3c0-12.3-10-22.3-22.3-22.3H456c-12.3,0-22.3,10-22.3,22.3V308C433.7,320.3,443.7,330.3,456,330.3z"/>
<path d="M500,10C229.9,10,10,229.8,10,500c0,270.2,219.9,490,490,490c270.2,0,490-219.7,490-490C990,229.8,770.2,10,500,10L500,10z M500,928.6C263.6,928.6,71.3,736.3,71.3,500C71.3,263.5,263.6,71.3,500,71.3c236.4,0,428.7,192.2,428.7,428.7C928.8,736.3,736.4,928.6,500,928.6L500,928.6z"/></g>
</svg>