<?xml version="1.0" encoding="utf-8"?>
<!-- Svg Vector Icons : http://www.onlinewebfonts.com/icon -->
<!DOCTYPE svg PUBLIC "-//W3C//DTD SVG 1.1//EN" "http://www.w3.org/Graphics/SVG/1.1/DTD/svg11.dtd">
<svg version="1.1" xmlns="http://www.w3.org/2000/svg" xmlns:xlink="http://www.w3.org/1999/xlink" x="0px" y="0px" viewBox="0 0 1000 1000" enable-background="new 0 0 1000 1000" xml:space="preserve">
<metadata> Svg Vector Icons : http://www.onlinewebfonts.com/icon </metadata>
<g><g style="fill:#FFFFFF;" transform="translate(0.000000,511.000000) scale(0.100000,-0.100000)">
<path d="M7838.9,2888.5v-997l220.6-22.5c476-51.1,890.8-249.2,1238.1-590.4c163.5-161.4,359.6-420.9,359.6-478.1c0-55.2-192.1-314.6-349.4-467.9c-304.4-304.4-731.4-514.8-1148.2-572.1c-106.3-14.3-974.5-22.5-2580.3-22.5H3160.4l-4.1,696.7l-6.1,698.7L1628.2-67.7C790.5-727.6,104.1-1271.1,100-1273.1c-2-2,682.4-541.4,1522-1199.3l1528.2-1193.1l6.1,700.8l4.1,700.8h2457.8c2324.9,0,2465.9,2,2641.6,38.8c762.1,157.3,1366.8,735.5,1577.2,1511.8l53.1,196.1l8.2,1215.6c6.1,1303.4,0,1434.2-91.9,1724.3c-106.3,339.1-273.8,610.9-535.3,870.3c-198.2,198.2-439.3,357.5-686.4,451.5c-194.1,75.6-488.3,141-637.4,141h-108.3V2888.5z"/></g></g>
</svg>