<?xml version="1.0" encoding="utf-8"?>
<!-- Svg Vector Icons : http://www.onlinewebfonts.com/icon -->
<!DOCTYPE svg PUBLIC "-//W3C//DTD SVG 1.1//EN" "http://www.w3.org/Graphics/SVG/1.1/DTD/svg11.dtd">
<svg version="1.1" xmlns="http://www.w3.org/2000/svg" xmlns:xlink="http://www.w3.org/1999/xlink" x="0px" y="0px" viewBox="0 0 1000 1000" enable-background="new 0 0 1000 1000" xml:space="preserve">
<metadata> Svg Vector Icons : http://www.onlinewebfonts.com/icon </metadata>
<g style="fill:#FFFFFF;"><path d="M334.2,150.4L27.9,456.7C4,480.6,4,519.4,27.9,543.3l306.3,306.3c23.9,23.9,62.7,23.9,86.6,0c23.9-23.9,23.9-62.7,0-86.6L219.1,561.3h709.6c33.8,0,61.3-27.4,61.3-61.3c0-33.8-27.4-61.3-61.3-61.3H219.1l201.7-201.7c12-12,17.9-27.6,17.9-43.3c0-15.7-6-31.3-17.9-43.3C396.9,126.5,358.1,126.5,334.2,150.4z"/></g>
</svg>