<?xml version="1.0" encoding="utf-8"?>
<!-- Svg Vector Icons : http://www.onlinewebfonts.com/icon -->
<!DOCTYPE svg PUBLIC "-//W3C//DTD SVG 1.1//EN" "http://www.w3.org/Graphics/SVG/1.1/DTD/svg11.dtd">
<svg version="1.1" xmlns="http://www.w3.org/2000/svg" xmlns:xlink="http://www.w3.org/1999/xlink" x="0px" y="0px" viewBox="0 0 1000 1000" enable-background="new 0 0 1000 1000" xml:space="preserve">
<metadata> Svg Vector Icons : http://www.onlinewebfonts.com/icon </metadata>
<g style="fill:#FFFFFF;"><path d="M665.8,849.6l306.3-306.3c23.9-23.9,23.9-62.7,0-86.6L665.8,150.4c-23.9-23.9-62.7-23.9-86.6,0c-23.9,23.9-23.9,62.7,0,86.6l201.7,201.7H71.3C37.4,438.7,10,466.2,10,500c0,33.8,27.4,61.3,61.3,61.3h709.6L579.2,762.9c-12,12-17.9,27.6-17.9,43.3c0,15.7,6,31.4,17.9,43.3C603.1,873.5,641.9,873.5,665.8,849.6z"/></g>
</svg>