<?xml version="1.0" encoding="utf-8"?>
<!-- Svg Vector Icons : http://www.onlinewebfonts.com/icon -->
<!DOCTYPE svg PUBLIC "-//W3C//DTD SVG 1.1//EN" "http://www.w3.org/Graphics/SVG/1.1/DTD/svg11.dtd">
<svg version="1.1" xmlns="http://www.w3.org/2000/svg" xmlns:xlink="http://www.w3.org/1999/xlink" x="0px" y="0px" viewBox="0 0 1000 1000" enable-background="new 0 0 1000 1000" xml:space="preserve">
<metadata> Svg Vector Icons : http://www.onlinewebfonts.com/icon </metadata>
<g style="fill:#FF0000;"><g transform="translate(0.000000,511.000000) scale(0.100000,-0.100000)"><path d="M3404.3,4997.7c-64.9-24.6-210.3-152.1-512.2-454.1c-230.4-230.4-438.4-449.6-458.5-487.6c-49.2-93.9-47-313.2,4.5-413.8c22.4-42.5,299.7-337.8,612.9-653.2l572.6-577.1l-572.6-574.9c-313.1-317.6-590.5-612.9-612.9-655.4c-51.4-100.7-53.7-319.9-4.5-413.8c20.1-35.8,230.4-259.5,469.7-496.6c373.5-369.1,445.1-431.7,532.4-454.1c111.8-29.1,239.3-15.7,344.5,38c38,17.9,328.8,293,646.4,606.2l574.9,572.6l577.1-572.6c315.4-313.1,606.2-588.3,644.2-606.2c105.1-53.7,232.6-67.1,344.5-38c87.2,22.4,161.1,85,541.3,465.2c380.3,378,447.4,454.1,478.7,548c40.3,120.8,31.3,243.8-29.1,360.1c-17.9,38-293,328.8-606.2,646.4L6379.3,2412l572.6,577.1c313.2,315.4,588.3,606.2,606.2,644.2c60.4,116.3,69.4,239.3,29.1,360.1c-31.3,93.9-98.4,170-478.7,548c-380.3,380.3-454.1,442.9-541.3,465.3c-111.8,29.1-239.4,15.7-344.5-38c-38-17.9-328.8-293-644.2-606.2l-577.1-572.6l-574.9,572.6c-317.6,313.2-610.6,588.3-650.9,608.4C3670.5,5024.6,3509.4,5035.8,3404.3,4997.7z"/><path d="M1612.6-1281c-590.5-87.2-1100.5-469.7-1353.3-1011c-212.5-449.6-212.5-1035.6,0-1485.2c176.7-380.3,476.4-675.5,870.1-865.7c310.9-149.8,398.2-158.8,1384.6-158.8h881.3l64.9,73.8c96.2,107.4,87.2,190.1-40.3,375.8c-58.1,85-140.9,219.2-185.6,297.5c-125.3,228.1-118.5,225.9-852.2,225.9c-662.1,0-765,13.4-935,123c-333.3,214.7-465.3,637.5-306.4,988.7c73.8,163.3,248.3,340,409.3,416l107.4,49.2h1644.1h1644.1l125.3-58.2c266.2-125.3,427.2-353.4,465.3-659.9c22.4-178.9,40.3-219.2,125.3-299.7c55.9-53.7,76.1-55.9,342.2-62.6c324.3-6.7,404.9,17.9,478.7,154.3c35.8,62.6,42.5,105.1,31.3,255c-51.4,749.3-545.8,1364.5-1277.2,1592.6l-201.3,62.6l-1644.1,2.2C2487.2-1263.1,1686.5-1269.8,1612.6-1281z"/><path d="M6726-1294.4c-167.8-87.2-221.4-263.9-132-422.8c29.1-49.2,94-167.8,147.6-261.7c149.9-261.7,102.9-248.3,910.4-261.7c653.2-11.2,700.1-15.7,800.8-62.6c161.1-71.6,335.5-248.3,409.3-413.8c87.2-192.4,89.5-438.4,4.5-621.8c-64.9-143.2-192.4-293-310.9-369.1c-194.6-123-192.4-123-1912.5-116.3l-1585.9,6.7l-149.9,73.8c-252.8,125.3-409.3,355.7-442.9,650.9c-17.9,167.7-35.8,212.5-123,293c-55.9,53.7-76,55.9-348.9,62.6c-261.7,6.7-295.3,4.5-364.6-38c-118.6-73.8-156.6-178.9-140.9-387c17.9-234.9,69.3-418.3,174.5-637.5c223.7-467.5,626.3-798.5,1149.7-950.6l178.9-51.4h1700c1892.3,0,1825.2-4.5,2174.2,156.6C9513-4345.4,9900-3745.9,9900-3034.6c0,697.9-364.6,1277.2-1004.3,1599.3c-304.2,152.1-393.7,163.3-1288.4,172.2C6866.9-1254.1,6795.3-1258.6,6726-1294.4z"/></g></g>
</svg>