<?xml version="1.0" encoding="utf-8"?>
<!-- Svg Vector Icons : http://www.onlinewebfonts.com/icon -->
<!DOCTYPE svg PUBLIC "-//W3C//DTD SVG 1.1//EN" "http://www.w3.org/Graphics/SVG/1.1/DTD/svg11.dtd">
<svg version="1.1" xmlns="http://www.w3.org/2000/svg" xmlns:xlink="http://www.w3.org/1999/xlink" x="0px" y="0px" viewBox="0 0 1000 1000" enable-background="new 0 0 1000 1000" xml:space="preserve">
<metadata> Svg Vector Icons : http://www.onlinewebfonts.com/icon </metadata>
<g><g transform="matrix(1 0 0 -1 0 960)"><path d="M633.6,595.4v87.3L455.5,860.9H99.1l89.1,89.1h334.1l89.1-89.1h334.1c12.5,0,23-4.3,31.6-12.9c8.6-8.6,12.9-19.2,12.9-31.6V682.7h-93.5L633.6,595.4z M99.1,148.2c-24.4,0-45.3,8.8-62.8,26.3C18.8,192,10,212.9,10,237.3v445.5c0,24.4,8.8,45.3,26.3,62.8c17.5,17.5,38.5,26.3,62.8,26.3h267.3c24.4,0,45.3-8.8,62.8-26.3c17.5-17.5,26.3-38.5,26.3-62.8V237.3c0-24.4-8.8-45.3-26.3-62.8c-17.5-17.5-38.5-26.3-62.8-26.3H99.1z M99.1,504.5h267.3v178.2H99.1V504.5z M633.6,328.1v145.2L990,591.9V446.6L633.6,328.1z M99.1,237.3h267.3v178.2H99.1V237.3z M188.2-30L99.1,59.1h356.4l178.2,178.2h93.5L990,324.6V103.6c0-12.5-4.3-23-12.9-31.6c-8.6-8.6-19.2-12.9-31.6-12.9H611.4L522.3-30H188.2z"/></g></g>
</svg>