<?xml version="1.0" encoding="utf-8"?>
<!-- Svg Vector Icons : http://www.onlinewebfonts.com/icon -->
<!DOCTYPE svg PUBLIC "-//W3C//DTD SVG 1.1//EN" "http://www.w3.org/Graphics/SVG/1.1/DTD/svg11.dtd">
<svg version="1.1" xmlns="http://www.w3.org/2000/svg" xmlns:xlink="http://www.w3.org/1999/xlink" x="0px" y="0px" viewBox="0 0 1000 1000" enable-background="new 0 0 1000 1000" xml:space="preserve">
<metadata> Svg Vector Icons : http://www.onlinewebfonts.com/icon </metadata>
<g><path d="M943.3,10c-212,4.2-427.7,40.7-639.7,109.6c-14.3,4-15.2,15.8-15.2,15.8v610.5c-38.3-8.6-85.5-3.6-130.9,16.9C73.2,801,27.2,878,54.8,934.9c27.6,56.9,118.3,72.2,202.6,34.1c74.6-33.7,111.7-84.7,111.2-151.7l0,0V293.2c167-48.9,335.9-77.9,503-86.8v486.2c-38.7-9.5-87.1-4.7-133.5,16.3C653.8,747,607.8,824,635.4,880.9C663,937.8,753.7,953.1,838,915c115.2-48.5,112.8-154.7,112.8-154.7l1.9-564.5c0.2-1.2,0.4-2.4,0.4-3.7V24.4C953.2,17.3,948.7,10.8,943.3,10z"/></g>
</svg>