<?xml version="1.0" encoding="utf-8"?>
<!-- Svg Vector Icons : http://www.onlinewebfonts.com/icon -->
<!DOCTYPE svg PUBLIC "-//W3C//DTD SVG 1.1//EN" "http://www.w3.org/Graphics/SVG/1.1/DTD/svg11.dtd">
<svg version="1.1" xmlns="http://www.w3.org/2000/svg" xmlns:xlink="http://www.w3.org/1999/xlink" x="0px" y="0px" viewBox="0 0 1000 1000" enable-background="new 0 0 1000 1000" xml:space="preserve">
<metadata> Svg Vector Icons : http://www.onlinewebfonts.com/icon </metadata>
<g><g transform="translate(0.000000,512.000000) scale(0.100000,-0.100000)"><path d="M4215.2,3513.6V2005.4L3152.9,3067.7L2090.6,4130l-549.3-551.2L990,3029.4l1062.3-1062.3L3114.6,904.8H1606.4H100V120v-784.8h1506.4h1508.3L2052.3-1727.1L990-2789.4l551.2-549.3l549.3-551.3l1062.3,1062.3l1062.3,1062.3v-1508.3V-4780H5000h784.8v1506.4v1508.3l1062.3-1062.3L7909.4-3890l549.3,551.3l551.3,549.3L7947.7-1727.1L6885.4-664.8h1508.3H9900V120v784.8H8393.6H6885.4l1062.3,1062.3L9010,3029.4l-551.3,549.3L7909.4,4130L6847.1,3067.7L5784.8,2005.4v1508.3V5020H5000h-784.8V3513.6z"/></g></g>
</svg>