<?xml version="1.0" encoding="utf-8"?>
<!-- Svg Vector Icons : http://www.onlinewebfonts.com/icon -->
<!DOCTYPE svg PUBLIC "-//W3C//DTD SVG 1.1//EN" "http://www.w3.org/Graphics/SVG/1.1/DTD/svg11.dtd">
<svg version="1.1" xmlns="http://www.w3.org/2000/svg" xmlns:xlink="http://www.w3.org/1999/xlink" x="0px" y="0px" viewBox="0 0 1000 1000" enable-background="new 0 0 1000 1000" xml:space="preserve">
<metadata> Svg Vector Icons : http://www.onlinewebfonts.com/icon </metadata>
<g><path d="M928.8,10H71.3C37.4,10,10,37.4,10,71.3v857.5c0,33.8,27.4,61.3,61.3,61.3h857.5c33.8,0,61.3-27.4,61.3-61.3V71.3C990,37.4,962.6,10,928.8,10z M71.3,71.3h857.5v286.6L496.9,562.4L381.7,460.6L71.3,691V71.3L71.3,71.3z M71.3,928.8L71.3,928.8V767.3l307.1-227.9l257.8,227.7l40.6-45.9L546.8,606.5l382-180.9v503.2H71.3z"/><path d="M272.8,346.9c42.3,0,76.6-34.3,76.6-76.6c0-42.3-34.3-76.6-76.6-76.6c-42.3,0-76.6,34.3-76.6,76.6C196.3,312.6,230.5,346.9,272.8,346.9z"/></g>
</svg>