<?xml version="1.0" encoding="utf-8"?>
<!-- Svg Vector Icons : http://www.onlinewebfonts.com/icon -->
<!DOCTYPE svg PUBLIC "-//W3C//DTD SVG 1.1//EN" "http://www.w3.org/Graphics/SVG/1.1/DTD/svg11.dtd">
<svg version="1.1" xmlns="http://www.w3.org/2000/svg" xmlns:xlink="http://www.w3.org/1999/xlink" x="0px" y="0px" viewBox="0 0 1000 1000" enable-background="new 0 0 1000 1000" xml:space="preserve">
<metadata> Svg Vector Icons : http://www.onlinewebfonts.com/icon </metadata>
<g style="fill:#FFFFFF;"><path d="M264.4,16.4c-27.9,14.5-38.8,48.8-24.3,76.7l211,406.9l-211,406.9c-14.5,27.9-3.6,62.3,24.3,76.7c27.9,14.5,62.3,3.6,76.7-24.3l224.3-432.5c4.3-8.4,6.4-17.3,6.4-26.2c0-0.2,0-0.4,0-0.6c0-0.2,0-0.4,0-0.6c0-8.8-2.1-17.8-6.4-26.2L341.2,40.7C326.7,12.8,292.3,1.9,264.4,16.4L264.4,16.4z"/><path d="M655.4,185.8c0-30.6,24.8-55.4,55.4-55.4l0,0c30.6,0,55.4,24.8,55.4,55.4v628.4c0,30.6-24.8,55.4-55.4,55.4l0,0c-30.6,0-55.4-24.8-55.4-55.4V185.8z"/></g>
</svg>