<?xml version="1.0" encoding="utf-8"?>
<!-- Svg Vector Icons : http://www.onlinewebfonts.com/icon -->
<!DOCTYPE svg PUBLIC "-//W3C//DTD SVG 1.1//EN" "http://www.w3.org/Graphics/SVG/1.1/DTD/svg11.dtd">
<svg version="1.1" xmlns="http://www.w3.org/2000/svg" xmlns:xlink="http://www.w3.org/1999/xlink" x="0px" y="0px" viewBox="0 0 1000 1000" enable-background="new 0 0 1000 1000" xml:space="preserve">
<metadata> Svg Vector Icons : http://www.onlinewebfonts.com/icon </metadata>
<g><path d="M256.7,705.3h488.2v-41.1H256.7V705.3z M418.1,335.3H255.1v44.1h162.9L418.1,335.3L418.1,335.3z M907.8,392.1l0-40.4L566.9,10.9H522l0.3-0.9H177.5c-47.1,0-85.2,38.1-85.2,85.2v809.5c0,47.1,38.1,85.2,85.2,85.2h645.1c47.1,0,85.2-38.1,85.2-85.2L907.8,392.1L907.8,392.1z M582,98.3l247,239H624.5c-23.5,0-42.6-19-42.6-42.6V98.3z M868.2,906.3c0,23.5-19.1,42.6-42.6,42.6H176c-23.5,0-42.6-19-42.6-42.6V95.2c0-23.5,19.1-42.6,42.6-42.6h358.7l6.1,5.9v236.2c0,47,38.2,85.2,85.2,85.2h242.1V906.3z M255.1,542.4h489.7v-42.6H255.1V542.4z"/></g>
</svg>