<?xml version="1.0" encoding="utf-8"?>
<!-- Svg Vector Icons : http://www.onlinewebfonts.com/icon -->
<!DOCTYPE svg PUBLIC "-//W3C//DTD SVG 1.1//EN" "http://www.w3.org/Graphics/SVG/1.1/DTD/svg11.dtd">
<svg version="1.1" xmlns="http://www.w3.org/2000/svg" xmlns:xlink="http://www.w3.org/1999/xlink" x="0px" y="0px" viewBox="0 0 1000 1000" enable-background="new 0 0 1000 1000" xml:space="preserve">
<metadata> Svg Vector Icons : http://www.onlinewebfonts.com/icon </metadata>
<g><path d="M952.3,47.7h-37.7v75.4H801.5V47.7H198.5v75.4H85.4V47.7H47.7C26.9,47.7,10,64.6,10,85.4v829.2c0,20.8,16.9,37.7,37.7,37.7h37.7v-37.7h113.1v37.7h603.1v-37.7h113.1v37.7h37.7c20.8,0,37.7-16.9,37.7-37.7V85.4C990,64.6,973.1,47.7,952.3,47.7z M198.5,801.5H85.4V688.5h113.1V801.5z M198.5,575.4H85.4V462.3h113.1V575.4z M198.5,349.2H85.4V236.2h113.1V349.2z M672.9,524.7l-245.1,143c-4,2-8.4,2.9-12.7,2.9c-5.2,0-10.3-1.4-14.9-4.1c-8.3-5-13.3-14-13.3-23.6V357.1c0-9.6,5.1-18.6,13.3-23.6c8.4-5.1,18.8-5.5,27.5-1.1l245.1,142.9c9.5,4.7,15.6,14.2,15.6,24.7S682.4,520,672.9,524.7z M914.6,801.5H801.5V688.5h113.1V801.5z M914.6,575.4H801.5V462.3h113.1V575.4z M914.6,349.2H801.5V236.2h113.1V349.2z"/></g>
</svg>